<?xml version="1.0" encoding="UTF-8" standalone="no"?><!DOCTYPE svg PUBLIC "-//W3C//DTD SVG 1.1//EN" "http://www.w3.org/Graphics/SVG/1.1/DTD/svg11.dtd"><svg width="100%" height="100%" viewBox="0 0 768 768" version="1.1" xmlns="http://www.w3.org/2000/svg" xmlns:xlink="http://www.w3.org/1999/xlink" xml:space="preserve" xmlns:serif="http://www.serif.com/" style="fill-rule:evenodd;clip-rule:evenodd;stroke-linejoin:round;stroke-miterlimit:1.5;"><rect x="15" y="15" width="369" height="369" style="fill:#730086;"/><rect x="384" y="384" width="369" height="369" style="fill:#730086;"/><rect x="15" y="384" width="369" height="369" style="fill:#26002d;"/><rect x="384" y="15" width="369" height="369" style="fill:#26002d;"/><g transform="matrix(10.026596,0,0,10.026596,-1798.56989,-2076.113043)"><g><g transform="matrix(50,0,0,50,186.362327,263.800554)"><path d="M0.5,-0.45l0,-0.1l-0.05,0l0,-0.05l-0.25,0l0,0.204l0.25,-0.004l0,-0.05l0.05,0Zm0,0.4l0,0.05l-0.4,-0l0,-0.7l0.4,0l0,0.05l0.05,0l0,0.05l0.05,0l0,0.2l-0.05,0l0,0.1l0.05,0l0,0.2l-0.05,0l0,0.05l-0.05,0Zm-0.05,-0.05l0,-0.05l0.05,0l0,-0.1l-0.05,0l0,-0.05l-0.25,0l0,0.2l0.25,0Z" style="fill-opacity:0.66;fill-rule:nonzero;"/></g><g transform="matrix(50,0,0,50,216.362327,263.800554)"><path d="M0.5,-0.4l-0.25,0l0,0.05l-0.05,0l0,0.2l0.05,0l0,0.05l0.25,0l0,-0.3Zm-0.3,-0.1l0.4,0l0,0.6l-0.05,0l0,0.05l-0.05,0l0,0.05l-0.3,0l0,-0.1l0.25,0l0,-0.05l0.05,0l0,-0.05l-0.3,-0l0,-0.05l-0.05,0l0,-0.05l-0.05,0l0,-0.3l0.05,0l0,-0.05l0.05,0l0,-0.05Z" style="fill-opacity:0.66;fill-rule:nonzero;"/></g></g></g><g transform="matrix(10.026596,0,0,10.026596,-1807.218087,-2087.747388)"><g><g transform="matrix(50,0,0,50,186.362327,263.800554)"><path d="M0.5,-0.45l0,-0.1l-0.05,0l0,-0.05l-0.25,0l0,0.204l0.25,-0.004l0,-0.05l0.05,0Zm0,0.4l0,0.05l-0.4,-0l0,-0.7l0.4,0l0,0.05l0.05,0l0,0.05l0.05,0l0,0.2l-0.05,0l0,0.1l0.05,0l0,0.2l-0.05,0l0,0.05l-0.05,0Zm-0.05,-0.05l0,-0.05l0.05,0l0,-0.1l-0.05,0l0,-0.05l-0.25,0l0,0.2l0.25,0Z" style="fill:#fff;fill-rule:nonzero;"/></g><g transform="matrix(50,0,0,50,216.362327,263.800554)"><path d="M0.5,-0.4l-0.25,0l0,0.05l-0.05,0l0,0.2l0.05,0l0,0.05l0.25,0l0,-0.3Zm-0.3,-0.1l0.4,0l0,0.6l-0.05,0l0,0.05l-0.05,0l0,0.05l-0.3,0l0,-0.1l0.25,0l0,-0.05l0.05,0l0,-0.05l-0.3,-0l0,-0.05l-0.05,0l0,-0.05l-0.05,0l0,-0.3l0.05,0l0,-0.05l0.05,0l0,-0.05Z" style="fill:#fff;fill-rule:nonzero;"/></g></g></g><g><g opacity="0.66"><path d="M748,748l-101.865,-101.865" style="fill:none;stroke:#000;stroke-width:40px;"/><path d="M748,748l-100,0" style="fill:#26002d;stroke:#000;stroke-width:40px;stroke-linecap:square;"/><path d="M748,748l0,-100" style="fill:#26002d;stroke:#000;stroke-width:40px;stroke-linecap:square;"/></g><g><path d="M748,748l-93.627,-93.627" style="fill:none;stroke:#fff;stroke-width:20px;"/><path d="M748,748l-100,0" style="fill:#26002d;stroke:#fff;stroke-width:20px;stroke-linecap:square;"/><path d="M748,748l0,-100" style="fill:#26002d;stroke:#fff;stroke-width:20px;stroke-linecap:square;"/></g></g><g><g opacity="0.66"><path d="M748,20l-101.865,101.865" style="fill:none;stroke:#000;stroke-width:40px;"/><path d="M748,20l0,100" style="fill:#26002d;stroke:#000;stroke-width:40px;stroke-linecap:square;"/><path d="M748,20l-100,-0" style="fill:#26002d;stroke:#000;stroke-width:40px;stroke-linecap:square;"/></g><g><path d="M748,20l-93.627,93.627" style="fill:none;stroke:#fff;stroke-width:20px;"/><path d="M748,20l0,100" style="fill:#26002d;stroke:#fff;stroke-width:20px;stroke-linecap:square;"/><path d="M748,20l-100,-0" style="fill:#26002d;stroke:#fff;stroke-width:20px;stroke-linecap:square;"/></g></g><g><g opacity="0.66"><path d="M20,20l101.865,101.865" style="fill:none;stroke:#000;stroke-width:40px;"/><path d="M20,20l100,0" style="fill:#26002d;stroke:#000;stroke-width:40px;stroke-linecap:square;"/><path d="M20,20l-0,100" style="fill:#26002d;stroke:#000;stroke-width:40px;stroke-linecap:square;"/></g><g><path d="M20,20l93.627,93.627" style="fill:none;stroke:#fff;stroke-width:20px;"/><path d="M20,20l100,0" style="fill:#26002d;stroke:#fff;stroke-width:20px;stroke-linecap:square;"/><path d="M20,20l-0,100" style="fill:#26002d;stroke:#fff;stroke-width:20px;stroke-linecap:square;"/></g></g><g><g opacity="0.66"><path d="M20,748l101.865,-101.865" style="fill:none;stroke:#000;stroke-width:40px;"/><path d="M20,748l0,-100" style="fill:#26002d;stroke:#000;stroke-width:40px;stroke-linecap:square;"/><path d="M20,748l100,0" style="fill:#26002d;stroke:#000;stroke-width:40px;stroke-linecap:square;"/></g><g><path d="M20,748l93.627,-93.627" style="fill:none;stroke:#fff;stroke-width:20px;"/><path d="M20,748l0,-100" style="fill:#26002d;stroke:#fff;stroke-width:20px;stroke-linecap:square;"/><path d="M20,748l100,0" style="fill:#26002d;stroke:#fff;stroke-width:20px;stroke-linecap:square;"/></g></g></svg>